<svg width="180" height="125" viewBox="0 0 180 125" fill="none" xmlns="http://www.w3.org/2000/svg">
<path d="M12.0012 22.976C10.5692 22.976 9.50516 22.66 8.80916 22.028C8.12116 21.388 7.75316 20.384 7.70516 19.016C7.69716 18.824 7.74916 18.672 7.86116 18.56C7.98116 18.44 8.13716 18.38 8.32916 18.38C8.52116 18.38 8.67316 18.436 8.78516 18.548C8.89716 18.66 8.96116 18.812 8.97716 19.004C9.00916 20.012 9.24916 20.716 9.69716 21.116C10.1452 21.516 10.9132 21.716 12.0012 21.716H15.4572C16.5932 21.716 17.3812 21.496 17.8212 21.056C18.2692 20.608 18.4932 19.824 18.4932 18.704C18.4932 17.568 18.2692 16.78 17.8212 16.34C17.3812 15.892 16.5932 15.668 15.4572 15.668H12.1692C10.7612 15.668 9.72916 15.34 9.07316 14.684C8.41716 14.028 8.08916 13 8.08916 11.6C8.08916 10.2 8.41316 9.172 9.06116 8.516C9.71716 7.86 10.7452 7.532 12.1452 7.532H15.5052C16.8492 7.532 17.8452 7.832 18.4932 8.432C19.1492 9.032 19.5012 9.976 19.5492 11.264C19.5652 11.456 19.5132 11.612 19.3932 11.732C19.2812 11.844 19.1252 11.9 18.9252 11.9C18.7412 11.9 18.5932 11.844 18.4812 11.732C18.3692 11.62 18.3052 11.468 18.2892 11.276C18.2572 10.356 18.0332 9.712 17.6172 9.344C17.2012 8.976 16.4972 8.792 15.5052 8.792H12.1452C11.0972 8.792 10.3692 9 9.96116 9.416C9.55316 9.824 9.34916 10.552 9.34916 11.6C9.34916 12.648 9.55316 13.38 9.96116 13.796C10.3772 14.204 11.1132 14.408 12.1692 14.408H15.4572C16.9452 14.408 18.0332 14.756 18.7212 15.452C19.4092 16.14 19.7532 17.224 19.7532 18.704C19.7532 20.184 19.4092 21.268 18.7212 21.956C18.0332 22.636 16.9452 22.976 15.4572 22.976H12.0012ZM28.8038 23C27.0678 23 25.7998 22.6 24.9998 21.8C24.1998 21 23.7998 19.732 23.7998 17.996V8.168C23.7998 7.976 23.8558 7.824 23.9678 7.712C24.0878 7.592 24.2438 7.532 24.4358 7.532C24.6278 7.532 24.7798 7.592 24.8918 7.712C25.0038 7.824 25.0598 7.976 25.0598 8.168V17.996C25.0598 18.924 25.1798 19.66 25.4198 20.204C25.6598 20.748 26.0518 21.14 26.5958 21.38C27.1398 21.62 27.8758 21.74 28.8038 21.74H31.6838C32.6038 21.74 33.3358 21.62 33.8798 21.38C34.4238 21.14 34.8158 20.748 35.0558 20.204C35.2958 19.66 35.4158 18.924 35.4158 17.996V8.168C35.4158 7.976 35.4718 7.824 35.5838 7.712C35.7038 7.592 35.8598 7.532 36.0518 7.532C36.2438 7.532 36.3958 7.592 36.5078 7.712C36.6198 7.824 36.6758 7.976 36.6758 8.168V17.996C36.6758 19.732 36.2758 21 35.4758 21.8C34.6838 22.6 33.4198 23 31.6838 23H28.8038ZM41.6886 23C41.2646 23 41.0526 22.788 41.0526 22.364V8.168C41.0526 7.744 41.2646 7.532 41.6886 7.532H47.3046C48.6726 7.532 49.7046 7.884 50.4006 8.588C51.1046 9.292 51.4566 10.328 51.4566 11.696V12.416C51.4566 13.776 51.1046 14.808 50.4006 15.512C49.7046 16.216 48.6726 16.568 47.3046 16.568H42.3126V22.364C42.3126 22.788 42.1046 23 41.6886 23ZM42.3126 15.308H47.3046C48.3126 15.308 49.0446 15.08 49.5006 14.624C49.9646 14.16 50.1966 13.424 50.1966 12.416V11.696C50.1966 10.68 49.9646 9.944 49.5006 9.488C49.0446 9.024 48.3126 8.792 47.3046 8.792H42.3126V15.308ZM64.9697 23.024C64.7937 23.128 64.6337 23.164 64.4897 23.132C64.3457 23.1 64.2177 23 64.1057 22.832L60.1697 16.568H55.7657V22.364C55.7657 22.788 55.5577 23 55.1417 23C54.7177 23 54.5057 22.788 54.5057 22.364V8.168C54.5057 7.744 54.7177 7.532 55.1417 7.532H60.7577C62.1257 7.532 63.1577 7.884 63.8537 8.588C64.5577 9.292 64.9097 10.328 64.9097 11.696V12.416C64.9097 13.624 64.6337 14.572 64.0817 15.26C63.5297 15.948 62.7137 16.368 61.6337 16.52L65.1737 22.16C65.3977 22.528 65.3297 22.816 64.9697 23.024ZM55.7657 15.308H60.7577C61.7657 15.308 62.4977 15.08 62.9537 14.624C63.4177 14.16 63.6497 13.424 63.6497 12.416V11.696C63.6497 10.68 63.4177 9.944 62.9537 9.488C62.4977 9.024 61.7657 8.792 60.7577 8.792H55.7657V15.308ZM69.3683 23C68.9443 23 68.7323 22.788 68.7323 22.364V8.168C68.7323 7.744 68.9443 7.532 69.3683 7.532H78.3563C78.7803 7.532 78.9923 7.744 78.9923 8.168C78.9923 8.584 78.7803 8.792 78.3563 8.792H69.9923V14.54H75.5243C75.9483 14.54 76.1603 14.748 76.1603 15.164C76.1603 15.588 75.9483 15.8 75.5243 15.8H69.9923V21.74H78.3563C78.7803 21.74 78.9923 21.948 78.9923 22.364C78.9923 22.788 78.7803 23 78.3563 23H69.3683ZM82.8214 23C82.3974 23 82.1854 22.788 82.1854 22.364V8.168C82.1854 7.744 82.3974 7.532 82.8214 7.532C83.1254 7.532 83.3654 7.672 83.5414 7.952L89.5174 17.084L89.2294 17.12L95.2054 7.952C95.3734 7.672 95.6254 7.532 95.9614 7.532C96.3374 7.532 96.5254 7.744 96.5254 8.168V22.364C96.5254 22.788 96.3174 23 95.9014 23C95.4774 23 95.2654 22.788 95.2654 22.364V9.428L95.6374 9.548L90.0934 17.996C89.9174 18.268 89.6654 18.404 89.3374 18.404C89.0494 18.404 88.8174 18.268 88.6414 17.996L83.0974 9.548L83.4454 9.68V22.364C83.4454 22.788 83.2374 23 82.8214 23ZM101.642 23C101.218 23 101.006 22.788 101.006 22.364V8.168C101.006 7.744 101.218 7.532 101.642 7.532H110.63C111.054 7.532 111.266 7.744 111.266 8.168C111.266 8.584 111.054 8.792 110.63 8.792H102.266V14.54H107.798C108.222 14.54 108.434 14.748 108.434 15.164C108.434 15.588 108.222 15.8 107.798 15.8H102.266V21.74H110.63C111.054 21.74 111.266 21.948 111.266 22.364C111.266 22.788 111.054 23 110.63 23H101.642ZM121.118 23C120.694 23 120.482 22.788 120.482 22.364V8.168C120.482 7.744 120.694 7.532 121.118 7.532H127.382C128.558 7.532 129.446 7.832 130.046 8.432C130.654 9.024 130.958 9.896 130.958 11.048V11.696C130.958 12.952 130.554 13.84 129.746 14.36C131.146 14.936 131.846 16.184 131.846 18.104V18.86C131.846 20.22 131.494 21.252 130.79 21.956C130.094 22.652 129.062 23 127.694 23H121.118ZM121.742 21.74H127.694C128.71 21.74 129.446 21.512 129.902 21.056C130.358 20.6 130.586 19.868 130.586 18.86V18.104C130.586 17.096 130.358 16.368 129.902 15.92C129.454 15.472 128.718 15.248 127.694 15.248H121.742V21.74ZM121.742 13.988H127.562C128.29 13.988 128.826 13.804 129.17 13.436C129.522 13.06 129.698 12.48 129.698 11.696V11.048C129.698 10.248 129.514 9.672 129.146 9.32C128.786 8.968 128.198 8.792 127.382 8.792H121.742V13.988ZM136.001 23C135.577 23 135.365 22.788 135.365 22.364V8.168C135.365 7.744 135.577 7.532 136.001 7.532H144.989C145.413 7.532 145.625 7.744 145.625 8.168C145.625 8.584 145.413 8.792 144.989 8.792H136.625V14.54H142.157C142.581 14.54 142.793 14.748 142.793 15.164C142.793 15.588 142.581 15.8 142.157 15.8H136.625V21.74H144.989C145.413 21.74 145.625 21.948 145.625 22.364C145.625 22.788 145.413 23 144.989 23H136.001ZM147.606 22.94C147.222 22.772 147.106 22.492 147.258 22.1L153.21 8.024C153.338 7.696 153.574 7.532 153.918 7.532H153.99C154.318 7.54 154.55 7.704 154.686 8.024L160.638 22.1C160.798 22.492 160.686 22.772 160.302 22.94C159.91 23.1 159.638 22.988 159.486 22.604L157.89 18.824H150.03L148.434 22.604C148.274 22.988 147.998 23.1 147.606 22.94ZM150.546 17.564H157.362L153.954 9.524L150.546 17.564ZM164.196 23C163.772 23 163.56 22.788 163.56 22.364V8.168C163.56 7.744 163.772 7.532 164.196 7.532C164.42 7.532 164.636 7.656 164.844 7.904L175.008 20.96H174.72V8.168C174.72 7.744 174.932 7.532 175.356 7.532C175.772 7.532 175.98 7.744 175.98 8.168V22.364C175.98 22.788 175.772 23 175.356 23C175.124 23 174.908 22.876 174.708 22.628L164.532 9.572H164.82V22.364C164.82 22.788 164.612 23 164.196 23Z" fill="#85FEB6"/>
<path d="M49.4824 65.8779H30.9814V53.4854C30.9814 49.8818 30.7764 47.6406 30.3662 46.7617C29.9854 45.8535 29.1211 45.3994 27.7734 45.3994C26.25 45.3994 25.2832 45.9414 24.873 47.0254C24.4629 48.1094 24.2578 50.4531 24.2578 54.0566V87.1035C24.2578 90.5605 24.4629 92.8164 24.873 93.8711C25.2832 94.9258 26.2061 95.4531 27.6416 95.4531C29.0186 95.4531 29.9121 94.9258 30.3223 93.8711C30.7617 92.8164 30.9814 90.3408 30.9814 86.4443V77.5234H49.4824V80.292C49.4824 87.6455 48.9551 92.8604 47.9004 95.9365C46.875 99.0127 44.5752 101.708 41.001 104.022C37.4561 106.337 33.0762 107.494 27.8613 107.494C22.4414 107.494 17.9736 106.513 14.458 104.55C10.9424 102.587 8.61328 99.877 7.4707 96.4199C6.32812 92.9336 5.75684 87.7041 5.75684 80.7314V59.9453C5.75684 54.8184 5.93262 50.9805 6.28418 48.4316C6.63574 45.8535 7.67578 43.3779 9.4043 41.0049C11.1621 38.6318 13.5791 36.7715 16.6553 35.4238C19.7607 34.0469 23.3203 33.3584 27.334 33.3584C32.7832 33.3584 37.2803 34.4131 40.8252 36.5225C44.3701 38.6318 46.6992 41.2686 47.8125 44.4326C48.9258 47.5674 49.4824 52.46 49.4824 59.1104V65.8779ZM98.1738 34.8525V82.4014C98.1738 87.792 97.998 91.5859 97.6465 93.7832C97.2949 95.9512 96.2549 98.1924 94.5264 100.507C92.7979 102.792 90.5127 104.535 87.6709 105.736C84.8584 106.908 81.5332 107.494 77.6953 107.494C73.4473 107.494 69.6973 106.791 66.4453 105.385C63.1934 103.979 60.7617 102.147 59.1504 99.8916C57.5391 97.6357 56.5869 95.2627 56.2939 92.7725C56.001 90.2529 55.8545 84.9795 55.8545 76.9521V34.8525H74.3555V88.2021C74.3555 91.3076 74.5166 93.2998 74.8389 94.1787C75.1904 95.0283 75.8789 95.4531 76.9043 95.4531C78.0762 95.4531 78.8232 94.9844 79.1455 94.0469C79.4971 93.0801 79.6729 90.8242 79.6729 87.2793V34.8525H98.1738ZM123.838 34.8525V91.7617H135.088V106H105.337V34.8525H123.838ZM176.88 34.8525V49.0908H165.894V106H147.393V49.0908H136.45V34.8525H176.88Z" fill="#85FEB6"/>
</svg>
